<svg width="32" height="33" viewBox="0 0 32 33" fill="none" xmlns="http://www.w3.org/2000/svg">
<path d="M7.3796 7.1571C7.19843 7.1571 7.01903 7.19357 6.85165 7.26443C6.68427 7.33528 6.53218 7.43914 6.40407 7.57006C6.27596 7.70099 6.17434 7.85642 6.10501 8.02748C6.03568 8.19854 6 8.38189 6 8.56704C6 8.7522 6.03568 8.93554 6.10501 9.10661C6.17434 9.27767 6.27596 9.4331 6.40407 9.56403C6.53218 9.69495 6.68427 9.79881 6.85165 9.86966C7.01903 9.94052 7.19843 9.97699 7.3796 9.97698H24.6204C24.8015 9.97699 24.9809 9.94052 25.1483 9.86966C25.3157 9.79881 25.4678 9.69495 25.5959 9.56403C25.724 9.4331 25.8256 9.27767 25.8949 9.10661C25.9643 8.93554 26 8.7522 26 8.56704C26 8.38189 25.9643 8.19854 25.8949 8.02748C25.8256 7.85642 25.724 7.70099 25.5959 7.57006C25.4678 7.43914 25.3157 7.33528 25.1483 7.26443C24.9809 7.19357 24.8015 7.1571 24.6204 7.1571H7.3796Z" fill="#9D9BD0"/>
<path d="M14.0291 5.48706C13.9596 5.48706 13.8908 5.52353 13.8266 5.59438C13.7624 5.66524 13.7041 5.76909 13.655 5.90002C13.6058 6.03094 13.5669 6.18637 13.5403 6.35744C13.5137 6.5285 13.5 6.71184 13.5 6.897C13.5 7.08215 13.5137 7.2655 13.5403 7.43656C13.5669 7.60762 13.6058 7.76305 13.655 7.89398C13.7041 8.02491 13.7624 8.12876 13.8266 8.19962C13.8908 8.27047 13.9596 8.30694 14.0291 8.30694H17.9709C18.0404 8.30694 18.1092 8.27047 18.1734 8.19962C18.2376 8.12876 18.2959 8.02491 18.345 7.89398C18.3942 7.76306 18.4331 7.60762 18.4597 7.43656C18.4863 7.2655 18.5 7.08216 18.5 6.897C18.5 6.71184 18.4863 6.5285 18.4597 6.35744C18.4331 6.18637 18.3942 6.03094 18.345 5.90002C18.2959 5.76909 18.2376 5.66524 18.1734 5.59438C18.1092 5.52353 18.0404 5.48706 17.9709 5.48706H14.0291Z" fill="#9D9BD0"/>
<path d="M8.3334 11.3538C7.57352 11.4522 7.03602 12.1582 7.13286 12.9306L8.95751 26.1987C9.04583 26.9027 9.63518 27.4303 10.3334 27.4304H21.6667C22.3649 27.4303 22.9542 26.9027 23.0425 26.1987L24.8671 12.9306C24.964 12.1582 24.4265 11.4522 23.6667 11.3538C22.9069 11.2553 22.2124 11.8016 22.1155 12.574L20.4453 24.6105H11.5548L9.88461 12.574C9.78774 11.8016 9.09324 11.2553 8.3334 11.3538Z" fill="#9D9BD0"/>
<path d="M13.6067 12.8647C13.4703 12.8727 13.3369 12.9079 13.2139 12.9684C13.0909 13.0288 12.9808 13.1133 12.89 13.217C12.7991 13.3207 12.7292 13.4416 12.6843 13.5727C12.6394 13.7039 12.6203 13.8427 12.6282 13.9814L13.1282 22.7813C13.1441 23.0613 13.2688 23.3233 13.4748 23.5099C13.6808 23.6964 13.9512 23.7922 14.2266 23.776C14.5021 23.7598 14.7599 23.6331 14.9434 23.4237C15.1269 23.2143 15.2211 22.9394 15.2052 22.6594L14.7052 13.8594C14.6974 13.7208 14.6627 13.5851 14.6032 13.46C14.5438 13.335 14.4607 13.2231 14.3586 13.1308C14.2566 13.0384 14.1377 12.9674 14.0087 12.9217C13.8797 12.876 13.7431 12.8567 13.6067 12.8647Z" fill="#9D9BD0"/>
<path d="M18.3465 12.8662C18.2103 12.8555 18.0734 12.8722 17.9435 12.9153C17.8137 12.9585 17.6934 13.0272 17.5897 13.1175C17.486 13.2079 17.4008 13.3181 17.3389 13.442C17.2771 13.5658 17.2399 13.7008 17.2294 13.8393L16.5628 22.6392C16.5416 22.9189 16.6305 23.1956 16.8101 23.4085C16.9896 23.6215 17.245 23.7532 17.5201 23.7747C17.7951 23.7963 18.0674 23.7058 18.2768 23.5233C18.4863 23.3408 18.6159 23.0812 18.6371 22.8016L19.3038 14.0017C19.3249 13.7221 19.236 13.4453 19.0565 13.2324C18.877 13.0195 18.6216 12.8877 18.3465 12.8662Z" fill="#9D9BD0"/>
</svg>
